HIERARCHY
ROOT Hips
{
 OFFSET 0.000000 0.000000 0.000000
 CHANNELS 6 Xposition Yposition Zposition Yrotation Xrotation Zrotation
 JOINT Chest
 {
  OFFSET 0.000000 10.354800 0.006500
  CHANNELS 3 Yrotation Xrotation Zrotation
  JOINT Chest2
  {
   OFFSET 0.000000 10.435800 -0.013200
   CHANNELS 3 Yrotation Xrotation Zrotation
   JOINT Chest3
   {
    OFFSET 0.000000 10.393700 0.000000
    CHANNELS 3 Yrotation Xrotation Zrotation
    JOINT Chest4
    {
     OFFSET 0.000000 10.383100 0.000000
     CHANNELS 3 Yrotation Xrotation Zrotation
     JOINT Neck
     {
      OFFSET 0.000000 15.694000 0.000000
      CHANNELS 3 Yrotation Xrotation Zrotation
      JOINT Head
      {
       OFFSET 0.000000 9.711000 -0.028000
       CHANNELS 3 Yrotation Xrotation Zrotation
       End Site
       {
        OFFSET 0.000000 18.578700 -0.014800
       }
      }
     }
     JOINT RightCollar
     {
      OFFSET -3.157200 10.367500 0.000000
      CHANNELS 3 Yrotation Xrotation Zrotation
      JOINT RightShoulder
      {
       OFFSET -14.482500 0.000000 0.000000
       CHANNELS 3 Yrotation Xrotation Zrotation
       JOINT RightElbow
       {
        OFFSET 0.000000 -31.707800 0.000000
        CHANNELS 3 Yrotation Xrotation Zrotation
        JOINT RightWrist
        {
         OFFSET 0.000000 -25.659300 0.000000
         CHANNELS 3 Yrotation Xrotation Zrotation
         End Site
         {
          OFFSET 0.000000 -18.994300 0.000000
         }
        }
       }
      }
     }
     JOINT LeftCollar
     {
      OFFSET 3.157200 10.367500 0.000000
      CHANNELS 3 Yrotation Xrotation Zrotation
      JOINT LeftShoulder
      {
       OFFSET 14.482500 0.000000 0.000000
       CHANNELS 3 Yrotation Xrotation Zrotation
       JOINT LeftElbow
       {
        OFFSET 0.000000 -31.707800 0.000000
        CHANNELS 3 Yrotation Xrotation Zrotation
        JOINT LeftWrist
        {
         OFFSET 0.000000 -25.659300 0.000000
         CHANNELS 3 Yrotation Xrotation Zrotation
         End Site
         {
          OFFSET 0.000000 -18.994300 0.000000
         }
        }
       }
      }
     }
    }
   }
  }
 }
 JOINT RightHip
 {
  OFFSET -8.365600 -0.032100 -0.003200
  CHANNELS 3 Yrotation Xrotation Zrotation
  JOINT RightKnee
  {
   OFFSET 0.000000 -43.980000 0.003100
   CHANNELS 3 Yrotation Xrotation Zrotation
   JOINT RightAnkle
   {
    OFFSET 0.000000 -42.882800 0.005200
    CHANNELS 3 Yrotation Xrotation Zrotation
    JOINT RightToe
    {
     OFFSET 0.000000 -4.915500 10.826300
     CHANNELS 3 Yrotation Xrotation Zrotation
     End Site
     {
      OFFSET 0.000000 -1.517500 6.175900
     }
    }
   }
  }
 }
 JOINT LeftHip
 {
  OFFSET 8.365600 -0.032100 -0.003200
  CHANNELS 3 Yrotation Xrotation Zrotation
  JOINT LeftKnee
  {
   OFFSET 0.000000 -43.980000 0.003100
   CHANNELS 3 Yrotation Xrotation Zrotation
   JOINT LeftAnkle
   {
    OFFSET 0.000000 -42.882800 0.005200
    CHANNELS 3 Yrotation Xrotation Zrotation
    JOINT LeftToe
    {
     OFFSET 0.000000 -4.915500 10.826300
     CHANNELS 3 Yrotation Xrotation Zrotation
     End Site
     {
      OFFSET 0.000000 -1.517500 6.175900
     }
    }
   }
  }
 }
}
MOTION
Frames: 11
Frame Time: 0.008333
0.000000 91.618600 0.000000 0.000000 -5.767877 0.000000 0.000000 11.653817 0.000000 0.000000 -5.885947 0.000000 0.000000 -0.000000 0.000000 0.000000 -0.000000 0.000000 0.000000 12.528835 0.000000 0.000000 0.711642 0.000000 0.000000 -0.000000 0.000000 0.000000 0.000000 -90.000000 0.000000 -2.309062 0.000000 0.000000 2.309062 0.000000 0.000000 -0.000000 0.000000 0.000000 -0.000000 90.000000 0.000000 -2.309062 0.000000 0.000000 2.309062 0.000000 0.000000 8.520406 0.000000 0.000000 1.905762 0.000000 -0.000000 -4.658285 0.000000 0.000000 -0.000000 0.000000 0.000000 8.520406 0.000000 0.000000 1.905762 0.000000 -0.000000 -4.658285 0.000000 0.000000 -0.000000 0.000000
86.886345 126.396603 117.433400 177.208931 -18.575458 -3.846194 -0.811705 11.187926 2.786942 -0.074177 0.777177 0.197418 -0.153294 1.289405 0.338555 -0.764846 10.264082 2.550349 -4.693743 22.312071 -3.608504 -4.239203 -1.679265 -2.850829 -1.610845 7.223421 -6.062979 -6.398174 -7.964417 -2.898972 -99.746190 -60.642183 115.223981 -24.900555 -9.262022 -16.000226 -1.729774 9.212296 0.911087 18.806364 -6.210362 -6.193540 98.523384 -59.016089 -118.087926 24.263146 -6.930868 17.611714 9.355378 -63.198311 -1.103334 -105.110866 80.428930 -98.170855 6.456579 -10.135780 -14.256634 0.011478 -0.002155 0.005211 -21.623863 -62.990401 16.568375 68.313779 80.660768 64.376175 -7.286582 -5.509120 -1.095863 0.004977 0.004261 0.002260
86.889084 126.398346 117.431391 177.198457 -18.595966 -3.875621 -0.843965 11.136334 2.804715 -0.056670 0.812754 0.202025 -0.143474 1.294819 0.339067 -0.769185 10.267237 2.557725 -4.710520 22.299185 -3.564769 -4.258843 -1.651939 -2.813524 -1.562671 7.046241 -6.047893 -6.535786 -8.695865 -3.242399 -99.447469 -59.751738 114.924472 -25.374005 -10.258839 -16.972412 -1.741087 9.120682 0.961845 19.098251 -6.605018 -5.951794 98.001775 -58.361014 -117.669682 24.434118 -7.327394 18.004096 9.310608 -63.176684 -1.049135 -105.090826 80.430495 -98.141497 6.421057 -10.156570 -14.245680 0.003773 -0.002857 0.001713 -21.627630 -62.974701 16.592301 68.369370 80.665666 64.444650 -7.299424 -5.507443 -1.090713 0.001687 0.001109 0.000766
86.888697 126.399077 117.431429 177.190544 -18.601841 -3.889805 -0.851388 11.103001 2.812830 -0.059982 0.812441 0.204968 -0.129217 1.323699 0.340843 -0.813883 10.155368 2.577674 -4.681610 22.377948 -3.544790 -4.253085 -1.618728 -2.771789 -1.485075 6.940162 -6.060625 -6.680177 -9.428901 -3.524481 -99.393182 -59.073602 114.681502 -25.733106 -11.240469 -17.950760 -1.727277 9.117998 0.995882 19.398507 -6.998168 -5.702800 97.740853 -57.925195 -117.412896 24.479572 -7.646492 18.422115 9.300422 -63.167334 -1.038979 -105.082957 80.439439 -98.123747 6.378444 -10.193910 -14.222192 -0.001098 -0.005025 -0.000499 -21.613617 -62.976184 16.590655 68.402962 80.668597 64.488354 -7.286617 -5.505991 -1.088935 0.003336 -0.000226 0.001515
86.888457 126.399719 117.431320 177.185202 -18.606127 -3.904439 -0.855164 11.068455 2.820780 -0.076507 0.763834 0.199539 -0.121229 1.361297 0.347611 -0.814599 10.129053 2.586929 -4.644117 22.402530 -3.499382 -4.226921 -1.591554 -2.727003 -1.425144 6.768791 -6.063484 -6.837517 -10.151428 -3.729327 -99.573027 -58.609958 114.494615 -25.956433 -12.090615 -18.775681 -1.732742 9.066993 1.052867 19.696100 -7.389367 -5.446508 97.715292 -57.699462 -117.303584 24.436319 -7.901664 18.865662 9.290618 -63.160793 -1.033702 -105.093740 80.450292 -98.125285 6.369180 -10.211858 -14.212212 -0.002167 -0.005609 -0.000984 -21.594431 -62.979206 16.579514 68.438532 80.671756 64.537270 -7.274559 -5.508485 -1.088508 0.003376 -0.000324 0.001533
86.887522 126.400285 117.430620 177.189442 -18.609860 -3.915312 -0.861659 11.036739 2.823001 -0.077287 0.768613 0.201119 -0.128884 1.293751 0.339963 -0.806000 10.208227 2.598873 -4.593876 22.359165 -3.441272 -4.186777 -1.578934 -2.679494 -1.371092 6.526892 -6.068768 -7.022957 -10.853279 -3.848670 -99.944138 -58.326585 114.373142 -26.053411 -12.742349 -19.338914 -1.742943 8.960015 1.117420 19.980504 -7.776731 -5.180732 97.889704 -57.654021 -117.332354 24.342015 -8.116411 19.321763 9.280786 -63.153861 -1.036862 -105.152191 80.436281 -98.178827 6.388193 -10.237918 -14.205853 -0.001464 -0.005008 -0.000665 -21.541053 -62.991386 16.517301 68.494196 80.664908 64.627936 -7.277727 -5.508521 -1.086453 0.000048 -0.001933 0.000022
86.887649 126.400596 117.430276 177.192035 -18.608655 -3.927626 -0.860551 11.002286 2.828073 -0.080708 0.792047 0.206284 -0.124765 1.258460 0.334075 -0.813491 10.176536 2.606170 -4.532020 22.361501 -3.387358 -4.138532 -1.583994 -2.627753 -1.315487 6.335650 -6.086751 -7.256221 -11.525946 -3.890081 -100.462267 -58.186035 114.341221 -26.065639 -13.177914 -19.613849 -1.748144 8.910692 1.174340 20.246365 -8.153385 -4.904002 98.233706 -57.738779 -117.501079 24.222100 -8.300766 19.767414 9.275005 -63.151863 -1.043800 -105.189896 80.444698 -98.207189 6.394800 -10.248817 -14.205641 -0.001111 -0.004356 -0.000505 -21.538888 -62.996159 16.510742 68.534849 80.664820 64.677992 -7.277998 -5.512796 -1.082782 0.001046 -0.000588 0.000475
86.888017 126.401136 117.428643 177.189963 -18.612017 -3.934713 -0.850614 10.972756 2.829324 -0.085092 0.787407 0.207353 -0.118819 1.251618 0.331963 -0.803919 10.076323 2.606133 -4.482394 22.418916 -3.324924 -4.088651 -1.606149 -2.571047 -1.279587 6.210526 -6.103739 -7.565789 -12.160693 -3.877847 -101.093861 -58.162122 114.433718 -26.028028 -13.440523 -19.669728 -1.768830 8.924996 1.233817 20.484719 -8.509557 -4.617807 98.725198 -57.903803 -117.812749 24.102657 -8.454387 20.166015 9.286304 -63.143205 -1.063441 -105.232579 80.453455 -98.236016 6.395631 -10.273537 -14.203824 -0.002654 -0.004853 -0.001205 -21.539746 -62.993281 16.514997 68.595054 80.686897 64.726809 -7.258493 -5.529536 -1.066285 -0.000562 0.002524 -0.000255
86.888656 126.401689 117.426451 177.196811 -18.615028 -3.940973 -0.844703 10.945078 2.828120 -0.089628 0.780824 0.206280 -0.111935 1.246698 0.331617 -0.808723 10.083152 2.611984 -4.415697 22.356905 -3.261961 -4.044118 -1.643525 -2.510104 -1.222979 5.983148 -6.130845 -7.975695 -12.749745 -3.845507 -101.813419 -58.230320 114.680505 -25.957169 -13.602141 -19.620337 -1.765824 8.824197 1.281992 20.688355 -8.839608 -4.325735 99.333484 -58.105317 -118.257824 24.001442 -8.567714 20.486384 9.293387 -63.132111 -1.084245 -105.334762 80.444779 -98.324822 6.417906 -10.325227 -14.205847 -0.001228 -0.006380 -0.000558 -21.508550 -62.998863 16.475620 68.669021 80.692240 64.811611 -7.240797 -5.537267 -1.057255 -0.001502 0.002689 -0.000682
86.889384 126.401879 117.424838 177.202909 -18.611812 -3.942610 -0.833371 10.914548 2.825492 -0.094313 0.771914 0.203058 -0.104523 1.244332 0.332761 -0.817143 10.085792 2.616658 -4.355158 22.288514 -3.201480 -4.010528 -1.693932 -2.445709 -1.160555 5.766251 -6.160413 -8.476901 -13.286045 -3.818888 -102.611147 -58.370593 115.091399 -25.860706 -13.732262 -19.568316 -1.753664 8.716132 1.325485 20.867259 -9.141529 -4.035014 100.014277 -58.308947 -118.811899 23.919100 -8.644023 20.720167 9.305873 -63.128396 -1.107280 -105.393370 80.445339 -98.373117 6.402377 -10.350816 -14.203354 -0.002070 -0.006107 -0.000940 -21.472070 -63.010071 16.438374 68.726970 80.702975 64.879814 -7.246436 -5.546974 -1.044026 -0.002154 0.002749 -0.000978
86.890241 126.401931 117.423164 177.214242 -18.605908 -3.941765 -0.820943 10.884765 2.821573 -0.100614 0.764291 0.201430 -0.095473 1.240897 0.331748 -0.814913 10.055441 2.615096 -4.319931 22.246651 -3.140016 -3.992495 -1.752031 -2.380242 -1.109336 5.588448 -6.185904 -9.027322 -13.766023 -3.813366 -103.488585 -58.573955 115.649209 -25.749449 -13.876398 -19.574771 -1.742393 8.630133 1.373113 21.031713 -9.414831 -3.752344 100.729941 -58.495555 -119.446068 23.851423 -8.690501 20.871043 9.310498 -63.129341 -1.126320 -105.476509 80.443579 -98.454800 6.405733 -10.376780 -14.202523 -0.001056 -0.008660 -0.000479 -21.441445 -63.022403 16.401688 68.776232 80.715615 64.935952 -7.240215 -5.554732 -1.033448 -0.000946 0.003626 -0.000430
